<svg xmlns="http://www.w3.org/2000/svg" viewBox="0 0 1440 320"><path fill="#338de2" fill-opacity="1" d="M0,192L30,176C60,160,120,128,180,133.3C240,139,300,181,360,170.7C420,160,480,96,540,96C600,96,660,160,720,154.7C780,149,840,75,900,85.3C960,96,1020,192,1080,224C1140,256,1200,224,1260,192C1320,160,1380,128,1410,112L1440,96L1440,320L1410,320C1380,320,1320,320,1260,320C1200,320,1140,320,1080,320C1020,320,960,320,900,320C840,320,780,320,720,320C660,320,600,320,540,320C480,320,420,320,360,320C300,320,240,320,180,320C120,320,60,320,30,320L0,320Z"/></svg>